<?xml version="1.0" encoding="utf-8"?>
<!-- Generator: Adobe Illustrator 15.0.0, SVG Export Plug-In . SVG Version: 6.00 Build 0)  -->
<!DOCTYPE svg PUBLIC "-//W3C//DTD SVG 1.1//EN" "http://www.w3.org/Graphics/SVG/1.1/DTD/svg11.dtd">
<svg version="1.1" id="Calque_1" xmlns="http://www.w3.org/2000/svg" xmlns:xlink="http://www.w3.org/1999/xlink" x="0px" y="0px"
	 width="595.28px" height="841.89px" viewBox="0 0 595.28 841.89" enable-background="new 0 0 595.28 841.89" xml:space="preserve">
<g opacity="0.48">
	<path oleazone="key02_3_" fill="#FFFFFF" stroke="#231F20" stroke-miterlimit="10" d="M428.069,73.854l-0.014,0.007
		c-6.246-18.345-34.184-10.258-34.184-10.258c-19.334-8-30.459,3.697-30.459,3.697c-11.176-3.57-19.676,6.554-19.676,6.554
		l0.801-1.251c-16.334,6-20.999,18.667-20.999,18.667s13.749,24.106,39.874,24.72l0,0c6.506,4.343,16.531,8.897,27.902,6.49v0.002
		c5.051,2.032,11.223,3.121,11.223,3.121c33.666-4.333,33-24.333,33-24.333C449.538,81.938,428.069,73.854,428.069,73.854z"/>
</g>
<g opacity="0.48">
	<path oleazone="key01_3_" fill="#FFFFFF" stroke="#231F20" stroke-miterlimit="10" d="M198.248,73.854l0.014,0.007
		c6.246-18.345,34.183-10.258,34.183-10.258c19.333-8,30.459,3.697,30.459,3.697c11.175-3.57,19.676,6.554,19.676,6.554
		l-0.802-1.251c16.333,6,21,18.667,21,18.667s-13.75,24.106-39.875,24.72l0,0c-6.506,4.343-16.532,8.897-27.903,6.49l0.001,0.002
		c-5.052,2.032-11.224,3.121-11.224,3.121c-33.667-4.333-33-24.333-33-24.333C176.779,81.938,198.248,73.854,198.248,73.854z"/>
</g>
<g opacity="0.48">
	<path oleazone="key02" fill="#231F20" d="M428.069,73.854l-0.014,0.007c-6.246-18.345-34.184-10.258-34.184-10.258
		c-19.334-8-30.459,3.697-30.459,3.697c-11.176-3.57-19.676,6.554-19.676,6.554l0.801-1.251c-16.334,6-20.999,18.667-20.999,18.667
		s13.749,24.106,39.874,24.72l0,0c6.506,4.343,16.531,8.897,27.902,6.49v0.002c5.051,2.032,11.223,3.121,11.223,3.121
		c33.666-4.333,33-24.333,33-24.333C449.538,81.938,428.069,73.854,428.069,73.854z"/>
</g>
<g opacity="0.48">
	<path oleazone="key01_1_" fill="#231F20" d="M198.248,73.854l0.014,0.007c6.246-18.345,34.183-10.258,34.183-10.258
		c19.333-8,30.459,3.697,30.459,3.697c11.175-3.57,19.676,6.554,19.676,6.554l-0.802-1.251c16.333,6,21,18.667,21,18.667
		s-13.75,24.106-39.875,24.72l0,0c-6.506,4.343-16.532,8.897-27.903,6.49l0.001,0.002c-5.052,2.032-11.224,3.121-11.224,3.121
		c-33.667-4.333-33-24.333-33-24.333C176.779,81.938,198.248,73.854,198.248,73.854z"/>
</g>
<path fill="#FFFFFF" stroke="#231F20" stroke-miterlimit="10" d="M416.157,469.825c0.025-2.99-0.111-6.143-0.451-9.482
	c0,0-5.623-26.148-17.16-42.63c-14.021-22.947-38.967-44.453-83.144-42.854v-0.033c-0.898-0.012-1.775,0.001-2.658,0.005
	c-0.414-0.002-0.832,0-1.246-0.002v-0.003c-0.238-0.003-0.469,0.002-0.705,0.001c-0.236,0.001-0.468-0.004-0.707-0.001v0.003
	c-0.413,0.002-0.83,0-1.244,0.002c-0.884-0.004-1.76-0.017-2.657-0.005v0.033c-63.596-0.024-87.063,41.018-95.695,69.525
	c-3.029,8.997-4.527,15.958-4.527,15.958c-0.375,3.695-0.513,7.172-0.443,10.443c-0.013,0.244-0.019,0.385-0.019,0.385
	c0.146,6.834,1.26,12.766,3.045,17.924c6.637,19.633,22.715,27.869,33.736,31.271c5.706,1.854,9.75,2.297,9.75,2.297h1.04
	c0.29,0.029,0.451,0.041,0.451,0.041h57.109h0.405h57.108c0,0,0.162-0.012,0.453-0.041h0.955c0,0,1.131-0.158,3.035-0.602
	c11.818-2.246,43.184-11.994,43.568-52.162c0-0.02,0-0.035,0-0.053C416.157,469.847,416.157,469.829,416.157,469.825z"/>
<ellipse transform="matrix(0.9628 0.2703 -0.2703 0.9628 131.5659 -56.469)" fill="#FFFFFF" stroke="#231F20" stroke-miterlimit="10" cx="270.824" cy="449.487" rx="36.907" ry="49.446"/>
<path fill="#FFFFFF" stroke="#231F20" stroke-miterlimit="10" d="M386.302,438.516c-7.381-26.293-29.271-43.141-48.895-37.633
	c-19.626,5.511-29.552,31.289-22.171,57.581c7.379,26.293,29.271,43.143,48.897,37.633
	C383.757,490.585,393.683,464.808,386.302,438.516z"/>
<path fill="#FFFFFF" stroke="#231F20" stroke-miterlimit="10" d="M313.115,444.556c0,0,0.842-3.834-1.799-4.58l0.002-0.136
	c-0.174,0-0.328,0.021-0.484,0.039c-0.154-0.019-0.308-0.039-0.483-0.039l0.003,0.136c-2.641,0.746-1.801,4.58-1.801,4.58
	s0.762,14.963-11.914,33.619c0,0,8.008-10.234,14.195-10.494c6.189,0.26,14.197,10.494,14.197,10.494
	C312.355,459.519,313.115,444.556,313.115,444.556z"/>
<g>
	<path fill="#FFFFFF" stroke="#231F20" stroke-miterlimit="10" d="M415.706,461.454c0,0-7.117-33.149-21.789-48.324
		c0,0-16.303-17.055-22.281-13.566c0,0-4.236,1.744,0,8.721c0,0,11.875,12.892,15.477,32.768
		c5.457,24.936-4.422,48.547-23.102,53.793c-14.477,4.064-30.178-4.045-40.386-19.127c0.412,0.646,0.838,1.295,1.283,1.953
		c0,0-8.008-10.234-14.196-10.496c-4.106,0.174-9.011,4.734-11.848,7.787c-10.153,16.199-26.5,25.098-41.525,20.879
		c-19.379-5.441-29.288-30.643-22.429-56.589c3.964-18.849,15.124-30.968,15.124-30.968c4.236-6.977,0-8.721,0-8.721
		c-5.98-3.488-22.283,13.566-22.283,13.566c-14.67,15.175-21.789,48.324-21.789,48.324c-5.95,58.65,47.56,62.359,47.56,62.359
		h57.109h0.405h57.108C368.146,523.813,421.657,520.104,415.706,461.454z"/>
	<path fill="#FFFFFF" stroke="#231F20" stroke-miterlimit="10" d="M323.242,475.157c0.125,0.189,0.256,0.373,0.383,0.561
		c-0.07-0.113-0.139-0.221-0.207-0.332C323.371,475.325,323.314,475.249,323.242,475.157z"/>
</g>
<g>
	<path fill="#FFFFFF" stroke="#231F20" stroke-miterlimit="10" d="M315.848,474.378c-0.811-2.732-2.096-3.898-2.871-2.602
		c-0.773,1.299-0.746,4.564,0.064,7.299c0.811,2.732,2.096,3.898,2.871,2.602C316.686,480.378,316.658,477.11,315.848,474.378z"/>
	<path fill="#FFFFFF" stroke="#231F20" stroke-miterlimit="10" d="M308.127,474.917c0.062-2.85-0.805-4.352-1.939-3.352
		c-1.133,0.998-2.103,4.117-2.164,6.971c-0.063,2.85,0.805,4.352,1.938,3.352S308.064,477.769,308.127,474.917z"/>
</g>
<path fill="#FFFFFF" stroke="#231F20" stroke-miterlimit="10" d="M419.741,255.603c0.25,73.75-55,63-55,63l-48.226-0.75
	l-48.228,0.75c0,0-55.25,10.75-55-63c0,0-0.204-2.65,0.031-7.026c0.301-5.597,1.319-14.017,4.402-23.328
	c0,0,9.567-23.646,21.317-11.146c0,0,3.25,3.25,3.75,13.75l1.25,17.25c0,0,5,21.5,26.75,23.5h45.728h49.022c0,0,18.5-4.5,23-22.75
	l2-20.5c0,0,0.5-17,11.25-16.25C401.788,209.103,419.946,215.603,419.741,255.603z"/>
<path fill="#FFFFFF" stroke="#231F20" stroke-miterlimit="10" d="M316.475,168.353c-110.023-1-103.228,87.25-103.228,87.25
	c-0.25,73.75,55,63,55,63l48.228-0.75l48.226,0.75c0,0,55.25,10.75,55-63C419.7,255.603,426.497,167.353,316.475,168.353z"/>
<path fill="#FFFFFF" stroke="#231F20" stroke-miterlimit="10" d="M310.932,211.687c-7.999-35.5-33.166-28.167-33.166-28.167
	c-32.833,6.5-35.167,44.666-35.167,44.666l1.25,17.25c0,0,5,21.5,26.75,23.5h45.727h49.022c0,0,18.5-4.5,23-22.75l2-20.5
	c-9.584-49.834-45.75-43.499-45.75-43.499s-19.874,2.874-23.999,29.749l-1.5,30.375c0,0,0.25,3.5-3.75,3.5
	c0,0-2.875-0.5-2.875-3.625L310.932,211.687z"/>
<path fill="#FFFFFF" stroke="#231F20" stroke-miterlimit="10" d="M320.625,211.936l-1.5,30.375c0,0,0.25,3.5-3.75,3.5
	c0,0-2.875-0.5-2.875-3.625l-1.543-30.499c0,0-1.397-40.459,4.834-42.584C315.791,169.103,320.602,169.894,320.625,211.936z"/>
<path oleazone="key05_2_" opacity="0.48" fill="#231F20" d="M213.25,254.874c-0.054,66.606,45.353,63.887,53.688,62.825l-23.667-70.551
	L213.25,254.874z"/>
<path oleazone="key06_2_" opacity="0.48" fill="#231F20" d="M244.811,246.752l-0.569,0.146l23.703,70.656
	c0.195-0.032,0.303-0.053,0.303-0.053l46.501-0.723v-70.027H244.811z"/>
<path oleazone="key04_2_" opacity="0.48" fill="#231F20" d="M388.565,245.752l0.068,0.019l31.066,8.813c0-0.027,0-0.055,0-0.082
	c0,0,6.797-88.25-103.226-87.25c-0.246-0.002-0.482,0.004-0.727,0.003v78.497H388.565z"/>
<path oleazone="key03_2_" opacity="0.48" fill="#231F20" d="M314.748,245.752v-78.494c-102.765-0.052-101.887,78.675-101.537,86.595
	l31.536-8.101H314.748z"/>
<path oleazone="key08" opacity="0.48" fill="#231F20" d="M365.839,317.677c7.816,1.037,53.562,4.257,53.854-62.056l-30.869-8.757
	L365.839,317.677z"/>
<path oleazone="key07" opacity="0.48" fill="#231F20" d="M315.748,246.752v70.012l0.727-0.012l48.226,0.75c0,0,0.051,0.01,0.137,0.024
	l22.973-70.774H315.748z"/>
<path oleazone="key09" opacity="0.48" fill="#231F20" d="M231.723,453.544h78.728v-78.142c-0.082,0-0.162-0.001-0.244,0v0.003
	c-0.414,0.002-0.831,0-1.244,0.002c-0.885-0.004-1.76-0.017-2.658-0.005v0.033c-63.596-0.024-87.062,41.018-95.694,69.526
	c-2.518,7.479-3.974,13.535-4.396,15.373c6.45-1.254,18.51-4.7,25.364-6.769L231.723,453.544z"/>
<path fill="#FFFFFF" stroke="#231F20" stroke-miterlimit="10" d="M231.3,454.983l-0.042-0.145c-2.918,0.873-17.789,5.27-25.34,6.689
	c-0.278,2.877-0.41,5.619-0.414,8.236c0.031-2.49,0.176-5.09,0.452-7.812L231.3,454.983z"/>
<path oleazone="key10" opacity="0.48" fill="#231F20" d="M385.661,453.715l0.062,0.017l1.83,0.483h1.543l11.754,3.519l14.9,3.943
	c-0.018-0.197-0.031-0.389-0.051-0.586c0,0-5.623-26.149-17.162-42.631c-14.02-22.947-38.965-44.453-83.144-42.854v-0.033
	c-0.896-0.012-1.773,0.001-2.658,0.005c-0.412-0.002-0.83,0-1.244-0.002v-0.003c-0.057-0.001-0.111,0-0.168,0v78.142H385.661z"/>
<path fill="#FFFFFF" stroke="#231F20" stroke-miterlimit="10" d="M416.147,470.747c0-0.033,0.002-0.066,0.002-0.102
	c0-0.018,0.002-0.035,0.002-0.053c0,0-0.002-0.016-0.002-0.02c0.023-2.725-0.096-5.592-0.371-8.602l-0.057,0.213
	C416.017,465.185,416.147,468.03,416.147,470.747z"/>
<polygon fill="#FFFFFF" stroke="#231F20" stroke-miterlimit="10" points="232.278,454.715 232.264,454.715 232.265,454.719 "/>
<path fill="#FFFFFF" stroke="#231F20" stroke-miterlimit="10" d="M205.494,471.917c0.003,0.158,0.014,0.311,0.019,0.469
	c-0.005-0.254-0.001-0.518-0.004-0.773C205.499,471.796,205.494,471.917,205.494,471.917z"/>
<path oleazone="key11" opacity="0.48" fill="#231F20" d="M242.275,521.114c4.228,1.373,7.539,1.971,8.973,2.188L231.3,454.983
	l-25.344,6.969c-0.276,2.723-0.421,5.322-0.452,7.812c-0.001,0.594-0.003,1.188,0.009,1.768c-0.002,0.035-0.002,0.051-0.004,0.08
	c0.003,0.256-0.001,0.52,0.004,0.773c0.187,6.635,1.283,12.418,3.026,17.455C215.176,509.476,231.254,517.712,242.275,521.114z"/>
<path oleazone="key14" opacity="0.48" fill="#231F20" d="M415.593,462.669l-27.031-7.152l-19.326,67.893h0.312c0,0,1.129-0.156,3.035-0.6
	c11.809-2.244,43.125-11.98,43.564-52.062c0-2.717-0.131-5.562-0.426-8.562L415.593,462.669z"/>
<path oleazone="key13" opacity="0.48" fill="#231F20" d="M385.53,454.715h-74.206v68.735h56.815c0,0,0.018,0,0.045-0.004l19.408-68.186
	L385.53,454.715z"/>
<path oleazone="key12" opacity="0.48" fill="#231F20" d="M232.278,454.715l-0.014,0.004l20.056,68.69h0.744
	c0.29,0.029,0.451,0.041,0.451,0.041h56.808v-68.735H232.278z"/>
<path fill="#FFFFFF" stroke="#231F20" stroke-miterlimit="10" d="M398.083,606.603c-5.918-55-74.966-56.75-74.966-56.75
	s-69.048,1.75-74.967,56.75c0,0-4.932,30,7.151,44.75c0,0,10.357,19.25,45.128,19.5h22.688h22.687
	c34.771-0.25,45.129-19.5,45.129-19.5C403.015,636.603,398.083,606.603,398.083,606.603z"/>
<path fill="#FFFFFF" stroke="#231F20" stroke-miterlimit="10" d="M366.808,587.233c-6.154-14.676-19.098-22.699-28.91-17.916
	s-12.78,20.557-6.629,35.234c6.154,14.678,19.098,22.703,28.912,17.918C369.993,617.687,372.96,601.907,366.808,587.233z"/>
<path fill="#FFFFFF" stroke="#231F20" stroke-miterlimit="10" d="M316.832,601.04c5.004-15.105,0.52-29.656-10.021-32.502
	c-10.541-2.842-23.142,7.1-28.149,22.207c-5.006,15.107-0.521,29.662,10.02,32.504C299.225,626.091,311.828,616.146,316.832,601.04z
	"/>
<g>
	<circle fill="#FFFFFF" stroke="#231F20" stroke-miterlimit="10" cx="323.117" cy="636.618" r="24.667"/>
	<circle fill="#FFFFFF" stroke="#231F20" stroke-miterlimit="10" cx="323.118" cy="636.692" r="15.624"/>
</g>
<g>
	<circle fill="#FFFFFF" stroke="#231F20" stroke-miterlimit="10" cx="323.117" cy="740.739" r="24.667"/>
	<circle fill="#FFFFFF" stroke="#231F20" stroke-miterlimit="10" cx="323.118" cy="740.813" r="15.624"/>
</g>
<circle oleazone="key20" opacity="0.48" fill="#231F20" cx="322.579" cy="740.813" r="15.624"/>
<g oleazone="key19" opacity="0.48">
	<path fill="#231F20" d="M323.117,716.073c-13.623,0-24.667,11.043-24.667,24.666c0,13.625,11.044,24.668,24.667,24.668
		c13.624,0,24.667-11.043,24.667-24.668C347.784,727.116,336.741,716.073,323.117,716.073z M323.117,756.438
		c-8.629,0-15.623-6.994-15.623-15.625c0-8.627,6.994-15.623,15.623-15.623c8.628,0,15.624,6.996,15.624,15.623
		C338.741,749.444,331.745,756.438,323.117,756.438z"/>
</g>
<path fill="#FFFFFF" stroke="#231F20" stroke-miterlimit="10" d="M398.321,606.603c-2.475-22.684-15.836-36.311-30.684-44.49
	c0,0-17.234-10.094-22.566-4.428c0,0-4.668,5.834,5.832,11c0,0,30,16.334,14.5,53c0,0-16,26.834-37.166,21.168l-3.333-9.834h-1.822
	h-1.131h-0.369l-3.334,9.834c-21.167,5.666-37.167-21.168-37.167-21.168c-15.5-36.666,14.5-53,14.5-53c10.5-5.166,5.833-11,5.833-11
	c-5.333-5.666-22.567,4.428-22.567,4.428c-14.847,8.18-28.208,21.807-30.683,44.49c0,0-5,30,7.25,44.75c0,0,10.5,19.25,45.75,19.5
	h21.156h1.844h21.157c35.25-0.25,45.75-19.5,45.75-19.5C403.321,636.603,398.321,606.603,398.321,606.603z"/>
<path oleazone="key18" opacity="0.48" fill="#231F20" d="M324.031,600.843v70h22.188c34.77-0.25,45.127-19.5,45.127-19.5
	c10.137-12.373,8.301-35.467,7.445-42.594l-27.678-7.906H324.031z"/>
<path oleazone="key15" opacity="0.48" fill="#231F20" d="M323.031,599.843v-49.98c-6.199,0.285-68.841,4.457-74.466,56.73
	c0,0-0.086,0.533-0.208,1.473l25.828-8.223H323.031z"/>
<path oleazone="key_17" opacity="0.48" fill="#231F20" d="M274.263,600.843l-26.037,8.311c-0.871,7.549-2.464,30.037,7.491,42.189
	c0,0,10.357,19.25,45.128,19.5h22.187v-70H274.263z"/>
<path oleazone="key_16" opacity="0.48" fill="#231F20" d="M371.255,599.843l0.066,0.02l27.334,7.809c-0.094-0.686-0.156-1.078-0.156-1.078
	c-5.625-52.273-68.268-56.445-74.468-56.73v49.98H371.255z"/>
</svg>
